<svg width="200" height="32" viewBox="0 0 200 32" fill="none" xmlns="http://www.w3.org/2000/svg">
<path d="M24.7792 31.8545H3.22968C1.44896 31.8545 0 30.4383 0 28.6973C0 26.9564 1.44872 25.5398 3.22968 25.5398H24.7792V26.2716C23.4018 26.2716 22.2814 27.3598 22.2814 28.6971C22.2812 29.0131 22.3442 29.3261 22.4666 29.6175C22.589 29.9089 22.7683 30.1729 22.9941 30.3941C23.4575 30.8524 24.0805 31.1134 24.7322 31.1222H24.761H24.7792V31.8545ZM3.22968 26.2716C1.85219 26.2716 0.7318 27.3601 0.7318 28.6973C0.7318 30.0345 1.85219 31.1227 3.22968 31.1227H22.7119C22.6306 31.0577 22.5529 30.9878 22.479 30.9132C22.1844 30.6242 21.9505 30.2794 21.791 29.8989C21.6314 29.5184 21.5493 29.1099 21.5496 28.6973C21.5496 27.7238 22.0028 26.8517 22.7136 26.2719L3.22968 26.2716ZM24.718 31.8531H24.7136C23.7899 31.8379 22.9217 31.5086 22.2697 30.9261C21.6035 30.3309 21.2366 29.5394 21.2366 28.6973C21.2366 27.7238 21.7337 26.8517 22.5136 26.2719H6.03857V6.32788C6.03857 3.11332 8.75721 0.411516 12.3613 0.0434202C12.6365 0.0150519 12.9129 0.000560196 13.1895 0L34.8264 0V0.7318C33.2767 0.7318 32.0158 1.81974 32.0158 3.15723C32.0158 3.18675 32.0158 3.21626 32.0141 3.24578C32.0121 3.28137 32.0121 3.31703 32.0141 3.35262L32.0155 3.36945V5.94856L31.8936 25.4547C31.8936 27.1622 31.1423 28.7685 29.7777 29.9767C28.4275 31.172 26.6309 31.8389 24.7207 31.8533L24.718 31.8531ZM24.779 25.5398V26.2716C23.2293 26.2716 21.9684 27.3598 21.9684 28.6971C21.9684 29.3279 22.2484 29.9255 22.7573 30.3802C23.2773 30.8451 23.9748 31.1081 24.7212 31.1213C26.4531 31.1071 28.0775 30.5063 29.2942 29.4286C30.4997 28.3614 31.1635 26.949 31.1635 25.4525L31.2854 5.94612V3.40165C31.2818 3.34228 31.2813 3.28276 31.284 3.22334C31.284 3.20138 31.2854 3.17943 31.2854 3.15723C31.2854 2.18369 31.7826 1.31139 32.5624 0.7318H13.1895C12.9376 0.732123 12.686 0.745395 12.4355 0.771561C9.2058 1.10136 6.77037 3.48996 6.77037 6.32788V25.5398H24.779ZM35.2972 4.20322H38.1092V3.35311C38.1092 3.34384 38.1109 3.33433 38.1117 3.32481C38.1124 3.3153 38.1117 3.29725 38.1131 3.27749C38.1131 3.24553 38.1131 3.2026 38.1131 3.15821C38.1131 3.10796 38.1131 3.056 38.1131 3.01648C38.1131 2.99209 38.1131 2.97404 38.1117 2.96062C38.1102 2.9472 38.1102 2.93623 38.1095 2.92866V2.9211V2.70766L38.1078 2.69059C38.1061 2.67229 38.1041 2.6418 38.1014 2.60667C38.0822 2.33835 38.0675 2.19516 38.0368 2.09978C37.8812 1.6185 37.4833 1.09526 36.9723 0.700333C36.3893 0.248324 35.7119 0 35.0635 0H34.8271V0.7318H35.0635C35.5501 0.7318 36.0692 0.926947 36.5249 1.27846C36.9152 1.5802 37.2264 1.97781 37.3386 2.31761C37.3516 2.37811 37.3662 2.58106 37.3718 2.65912C37.374 2.69156 37.3762 2.71937 37.3779 2.74059V3.47239H35.2728C35.2406 3.4741 35.2033 3.47239 35.1637 3.47239C35.1393 3.47239 35.115 3.47239 35.0906 3.47239H32.017V3.70779V4.20322H35.0906H35.152C35.1748 4.20322 35.1987 4.20322 35.2237 4.20322C35.2484 4.20444 35.2728 4.20419 35.2972 4.20322ZM23.0488 21.6564V15.441H16.0235V21.6564H12.5235V5.9471H16.0245V12.2308H23.0498V5.9471H26.5058V21.6564H23.0488ZM30.1292 20.2762C29.0295 19.2065 28.4797 17.8188 28.4797 16.1133C28.4797 14.422 29.037 13.0306 30.1516 11.9391C31.2663 10.8476 32.7287 10.3015 34.539 10.3008C36.3641 10.3008 37.8341 10.8469 38.9489 11.9391C40.0636 13.0312 40.6209 14.4226 40.6208 16.1133C40.6208 17.8188 40.0709 19.2065 38.9713 20.2762C37.8716 21.346 36.3942 21.8808 34.539 21.8808C32.6988 21.8808 31.2288 21.346 30.1292 20.2762ZM36.6373 18.1667C37.1089 17.6057 37.3447 16.9212 37.3447 16.1133C37.3447 15.3353 37.1054 14.6545 36.6266 14.0711C36.1478 13.4876 35.452 13.1961 34.539 13.1968C33.6413 13.1968 32.9531 13.4885 32.4744 14.072C31.9956 14.6555 31.7562 15.3363 31.7562 16.1142C31.7562 16.8922 31.992 17.5692 32.4636 18.1452C32.9352 18.7212 33.6272 19.0092 34.5395 19.0092C35.4674 19.0086 36.1667 18.7277 36.6373 18.1667ZM45.7375 5.9471V21.634H42.5281V5.9471H45.7375ZM49.2946 20.2762C48.1949 19.2065 47.6451 17.8188 47.6451 16.1133C47.6451 14.422 48.2024 13.0306 49.317 11.9391C50.4316 10.8476 51.8941 10.3015 53.7044 10.3008C55.5297 10.3008 56.9996 10.8469 58.1142 11.9391C59.2288 13.0312 59.7861 14.4226 59.7861 16.1133C59.7861 17.8188 59.2363 19.2065 58.1367 20.2762C57.037 21.346 55.5595 21.8808 53.7041 21.8808C51.8639 21.8808 50.394 21.346 49.2943 20.2762H49.2946ZM55.8027 18.1667C56.2743 17.6057 56.5101 16.9212 56.5101 16.1133C56.5101 15.3353 56.2707 14.6545 55.792 14.0711C55.3132 13.4876 54.6173 13.1961 53.7041 13.1968C52.8065 13.1968 52.1182 13.4885 51.6395 14.072C51.1607 14.6555 50.9213 15.3363 50.9213 16.1142C50.9213 16.8922 51.1572 17.5692 51.6288 18.1452C52.1004 18.7212 52.7923 19.0092 53.7046 19.0092C54.6319 19.0086 55.3312 18.7277 55.8025 18.1667H55.8027ZM64.1847 23.16C64.2893 24.6561 65.2168 25.4042 66.9673 25.4042C67.7303 25.4042 68.3774 25.2284 68.9085 24.8768C69.4396 24.5252 69.7052 24.0203 69.7052 23.362C69.7052 22.0904 68.8075 21.4546 67.0122 21.4544C65.1871 21.4544 63.7322 20.9495 62.6475 19.9396C61.5628 18.9297 61.0204 17.5718 61.0204 15.8659C61.0204 14.0706 61.6039 12.6792 62.7709 11.6917C63.9379 10.7043 65.3516 10.2106 67.0122 10.2106C68.1642 10.2106 69.0319 10.4125 69.6154 10.8165L70.8273 9.24557L73.1612 11.0409L71.7464 12.7241C72.5543 13.6965 72.9359 14.7588 72.891 15.9108C72.8461 17.7062 72.0532 19.0003 70.5124 19.7932C72.158 20.5262 72.9807 21.7156 72.9807 23.3615C72.9807 24.9175 72.3898 26.1219 71.2078 26.9746C70.0259 27.8274 68.6121 28.2538 66.9663 28.2538C65.0662 28.2538 63.6189 27.8087 62.6243 26.9185C61.6297 26.0283 61.1478 24.7755 61.1785 23.16H64.1847ZM64.9351 13.8242C64.4041 14.3179 64.1386 14.9987 64.1384 15.8664C64.1384 16.6594 64.4114 17.2989 64.9575 17.7852C65.5036 18.2714 66.1881 18.5145 67.011 18.5145C67.7891 18.5145 68.4477 18.2826 68.9868 17.8188C69.5259 17.3551 69.7952 16.7046 69.7947 15.8674C69.7947 15.0894 69.5292 14.4308 68.998 13.8915C68.4669 13.3523 67.8049 13.083 67.0119 13.0836C66.1591 13.0836 65.4669 13.3305 64.9351 13.8242ZM78.0297 10.5701L78.2782 11.782C78.9816 10.7945 79.969 10.3008 81.2406 10.3008C82.288 10.3008 83.1932 10.6374 83.956 11.3107L82.6095 13.8691C82.086 13.495 81.4951 13.308 80.8366 13.308C80.1037 13.308 79.4903 13.5362 78.9964 13.9925C78.5025 14.4488 78.2556 15.0735 78.2558 15.8664V21.634H75.0234V10.5701H78.0297ZM93.268 10.5477H96.2976V21.634H93.3802L93.2006 20.2435C92.8564 20.7822 92.3589 21.1861 91.7082 21.4554C91.0576 21.7247 90.4183 21.8665 89.7904 21.8808C88.0992 21.8956 86.7227 21.3834 85.6611 20.344C84.5995 19.3047 84.0684 17.8872 84.0678 16.0913C84.0678 14.296 84.6176 12.8746 85.7172 11.8274C86.8169 10.7801 88.2045 10.2714 89.8802 10.3013C90.5984 10.3013 91.2529 10.436 91.8439 10.7053C92.4348 10.9746 92.8725 11.3486 93.1567 11.8274L93.268 10.5477ZM88.1297 13.9476C87.5768 14.4786 87.3004 15.193 87.3004 16.0908C87.3004 16.9887 87.5768 17.6993 88.1297 18.2228C88.6827 18.7466 89.3783 19.0084 90.2168 19.0083C91.0847 19.0083 91.7917 18.7237 92.3376 18.1545C92.8835 17.5853 93.1566 16.9348 93.1567 16.203C93.1567 15.3502 92.8986 14.6284 92.3825 14.0374C91.8663 13.4464 91.1444 13.1509 90.2168 13.1509C89.3792 13.1509 88.6835 13.4165 88.1297 13.9476ZM98.8121 26.5263V10.5701H101.707L101.909 11.9849C102.747 10.9064 103.973 10.3672 105.589 10.3672C107.22 10.3672 108.541 10.8949 109.551 11.9503C110.56 13.0057 111.065 14.3934 111.065 16.1133C111.065 17.8787 110.557 19.2813 109.539 20.3211C108.522 21.3609 107.19 21.8808 105.544 21.8808C104.078 21.8808 102.919 21.3572 102.066 20.3099V26.5263H98.8121ZM107.07 18.1667C107.564 17.6357 107.811 16.9513 107.811 16.1133C107.811 15.2906 107.568 14.6098 107.082 14.0711C106.595 13.5323 105.933 13.263 105.096 13.2631C104.273 13.2631 103.57 13.495 102.986 13.9588C102.403 14.4226 102.111 15.1408 102.111 16.1133C102.111 16.9961 102.41 17.6918 103.008 18.2004C103.607 18.7089 104.302 18.9632 105.096 18.9634C105.919 18.9634 106.577 18.6978 107.07 18.1667ZM116.204 5.92466V11.9166C116.997 10.8843 118.119 10.3681 119.571 10.3681C122.518 10.3681 123.992 12.1407 123.992 15.6859V21.633H120.76V15.7093C120.76 14.9463 120.569 14.3553 120.188 13.9364C119.806 13.5175 119.294 13.308 118.651 13.308C117.948 13.308 117.361 13.5474 116.889 14.0262C116.418 14.5049 116.182 15.1707 116.182 16.0235V21.634H112.95V5.92466H116.204ZM140.429 9.31338C139.83 8.72989 139.112 8.27731 138.274 7.95565C137.437 7.63398 136.606 7.47314 135.783 7.47314C133.839 7.47314 132.312 8.09778 131.205 9.34704C130.098 10.5963 129.544 12.1336 129.545 13.9588C129.545 15.6792 130.087 17.138 131.172 18.335C132.256 19.5321 133.808 20.1305 135.828 20.1304C137.459 20.1304 138.888 19.5992 140.115 18.537V14.8116H135.222V13.0836H141.888V19.3C140.227 21.0806 138.2 21.9708 135.806 21.9706C134.459 21.9706 133.251 21.7537 132.181 21.3198C131.112 20.8859 130.252 20.2949 129.602 19.5469C128.951 18.7993 128.449 17.9349 128.121 16.9997C127.784 16.0497 127.616 15.0361 127.616 13.9588C127.601 11.5501 128.334 9.56398 129.815 8.00053C131.296 6.43708 133.286 5.65535 135.785 5.65535C138.044 5.65535 139.966 6.44082 141.552 8.01175L140.429 9.31338ZM153.688 21.7237L153.643 19.704C153.239 20.423 152.629 21.0051 151.892 21.3759C151.144 21.7574 150.366 21.9482 149.559 21.9482C147.928 21.9482 146.574 21.4208 145.497 20.366C144.42 19.3112 143.881 17.9011 143.881 16.1357C143.881 14.3852 144.423 12.9901 145.508 11.9503C146.593 10.9105 147.951 10.3982 149.582 10.4135C150.416 10.4092 151.24 10.6055 151.983 10.9858C152.731 11.3673 153.3 11.9096 153.689 12.6128L153.711 10.5931H155.506V21.6789H153.734L153.688 21.7237ZM149.649 12.1635C148.526 12.1635 147.584 12.5338 146.821 13.2744C146.058 14.015 145.677 14.9912 145.677 16.203C145.677 17.4149 146.059 18.3949 146.822 19.1429C147.585 19.891 148.527 20.265 149.649 20.265C150.382 20.265 151.037 20.1154 151.613 19.8162C152.189 19.517 152.626 19.128 152.926 18.6492C153.229 18.1615 153.449 17.6268 153.576 17.067C153.711 16.4989 153.711 15.9071 153.576 15.339C153.448 14.7795 153.228 14.2452 152.925 13.7578C152.626 13.2791 152.192 12.8901 151.623 12.5909C151.054 12.2916 150.404 12.142 149.672 12.142L149.649 12.1635ZM158.182 10.615H159.888L160 12.2308C160.314 11.6174 160.767 11.1611 161.358 10.8619C161.949 10.5626 162.588 10.413 163.276 10.413C164.114 10.413 164.87 10.6075 165.543 10.9965C166.216 11.3855 166.702 11.9989 167.002 12.8368C167.391 12.0288 167.929 11.4229 168.618 11.019C169.306 10.615 170.069 10.413 170.907 10.413C172.358 10.413 173.499 10.8544 174.329 11.7371C175.159 12.6198 175.575 13.8242 175.575 15.3502V21.6789H173.734V15.3502C173.734 14.4233 173.476 13.6565 172.96 13.05C172.444 12.4434 171.745 12.1404 170.862 12.1411C169.965 12.1411 169.235 12.4515 168.674 13.0724C168.113 13.6933 167.833 14.4675 167.833 15.3951V21.6789H165.992V15.3951C165.992 14.4682 165.719 13.6939 165.173 13.0724C164.627 12.4509 163.905 12.1404 163.007 12.1411C162.109 12.1411 161.384 12.4515 160.83 13.0724C160.277 13.6933 160 14.4675 160.001 15.3951V21.6789H158.161V10.5926L158.182 10.615ZM188.306 19.905C187.767 20.5483 187.064 21.0383 186.196 21.3749C185.346 21.7087 184.44 21.8803 183.526 21.8808C181.79 21.8808 180.383 21.3534 179.306 20.2987C178.228 19.2439 177.689 17.8413 177.69 16.0908C177.69 14.4158 178.229 13.0394 179.306 11.9615C180.383 10.8837 181.759 10.3451 183.435 10.3457C185.23 10.3457 186.655 10.903 187.71 12.0176C188.765 13.1322 189.188 14.7443 188.979 16.8538H179.553C179.658 17.8563 180.084 18.6604 180.832 19.2664C181.58 19.8723 182.493 20.1752 183.57 20.1752C184.228 20.1752 184.89 20.0518 185.556 19.805C186.222 19.5581 186.734 19.2177 187.093 18.7838L188.327 19.9059L188.306 19.905ZM187.229 15.3278C187.184 14.2654 186.825 13.4463 186.151 12.8704C185.478 12.2946 184.588 12.0066 183.481 12.0064C182.478 12.0064 181.611 12.2981 180.878 12.8816C180.145 13.4651 179.703 14.273 179.554 15.3054H187.229V15.3278ZM198.427 13.0612C197.634 12.343 196.594 11.984 195.308 11.984C194.5 11.9692 193.838 12.1038 193.322 12.3879C192.805 12.672 192.555 13.076 192.57 13.5998C192.585 14.4827 193.505 15.0287 195.33 15.238C195.854 15.298 196.284 15.3579 196.621 15.4176C196.957 15.4773 197.365 15.5857 197.844 15.743C198.322 15.8994 198.7 16.0902 198.977 16.3152C199.253 16.5403 199.496 16.8508 199.706 17.2466C199.915 17.6431 200.013 18.1031 199.999 18.6268C199.983 19.689 199.535 20.5081 198.652 21.0841C197.77 21.6602 196.67 21.9482 195.353 21.9482C193.154 21.9482 191.501 21.2525 190.393 19.8611L191.448 18.5819C192.375 19.7188 193.692 20.2873 195.398 20.2875C196.131 20.2875 196.778 20.1528 197.339 19.8835C197.9 19.6142 198.188 19.1728 198.203 18.5594C198.218 18.0065 197.968 17.6026 197.451 17.3476C196.935 17.0926 196.191 16.9056 195.218 16.7865C194.59 16.7117 194.051 16.6141 193.603 16.4938C193.131 16.3656 192.672 16.1927 192.233 15.9776C191.769 15.7532 191.414 15.4428 191.167 15.0463C190.921 14.6498 190.797 14.1673 190.797 13.5988C190.797 12.8507 191.029 12.2224 191.493 11.7137C191.945 11.2127 192.522 10.841 193.165 10.6365C193.815 10.427 194.522 10.3294 195.285 10.3438C197.006 10.3438 198.413 10.8375 199.505 11.8249L198.451 13.0368L198.427 13.0612Z" fill="url(#paint0_linear_303_2109)"/>
<defs>
<linearGradient id="paint0_linear_303_2109" x1="0" y1="15.9274" x2="200" y2="15.9274" gradientUnits="userSpaceOnUse">
<stop stop-color="#2DA7DD"/>
<stop offset="1" stop-color="#896380"/>
</linearGradient>
</defs>
</svg>
